{"glyphs":{"0":{"ha":1111,"x_min":0,"x_max":972,"o":"m 972 0 l 0 0 l 0 625 l 972 625 l 972 0 m 833 69 l 69 515 l 69 69 l 833 69 m 139 556 l 903 110 l 903 556 l 139 556 z "},"1":{"ha":278,"x_min":0,"x_max":139,"o":"m 0 556 l 69 556 l 69 625 l 139 625 l 139 0 l 69 0 l 69 486 l 0 486 l 0 556 z "},"2":{"ha":1111,"x_min":0,"x_max":972,"o":"m 0 347 l 903 347 l 903 556 l 0 556 l 0 625 l 972 625 l 972 278 l 69 278 l 69 69 l 972 69 l 972 0 l 0 0 l 0 347 z "},"3":{"ha":1111,"x_min":0,"x_max":972,"o":"m 903 556 l 0 556 l 0 625 l 972 625 l 972 0 l 0 0 l 0 69 l 903 69 l 903 278 l 0 278 l 0 347 l 903 347 l 903 556 z "},"4":{"ha":1111,"x_min":0,"x_max":972,"o":"m 69 625 l 69 347 l 903 347 l 903 625 l 972 625 l 972 0 l 903 0 l 903 278 l 0 278 l 0 625 l 69 625 z "},"5":{"ha":1111,"x_min":0,"x_max":972,"o":"m 972 0 l 0 0 l 0 69 l 903 69 l 903 278 l 0 278 l 0 625 l 972 625 l 972 556 l 69 556 l 69 347 l 972 347 l 972 0 z "},"6":{"ha":1111,"x_min":0,"x_max":972,"o":"m 0 625 l 972 625 l 972 556 l 69 556 l 69 347 l 972 347 l 972 0 l 0 0 l 0 625 m 69 278 l 69 69 l 903 69 l 903 278 l 69 278 z "},"7":{"ha":1111,"x_min":0,"x_max":972,"o":"m 903 556 l 0 556 l 0 625 l 972 625 l 972 0 l 903 0 l 903 556 z "},"8":{"ha":1111,"x_min":0,"x_max":972,"o":"m 69 278 l 69 69 l 903 69 l 903 278 l 69 278 m 903 347 l 903 556 l 69 556 l 69 347 l 903 347 m 972 0 l 0 0 l 0 625 l 972 625 l 972 0 z "},"9":{"ha":1111,"x_min":0,"x_max":972,"o":"m 972 0 l 0 0 l 0 69 l 903 69 l 903 278 l 0 278 l 0 625 l 972 625 l 972 0 m 903 347 l 903 556 l 69 556 l 69 347 l 903 347 z "}," ":{"ha":694,"x_min":0,"x_max":0,"o":""},"!":{"ha":208,"x_min":0,"x_max":69,"o":"m 0 625 l 69 625 l 69 139 l 0 139 l 0 625 m 0 69 l 69 69 l 69 0 l 0 0 l 0 69 z "},"\"":{"ha":347,"x_min":0,"x_max":208,"o":"m 0 625 l 69 625 l 69 486 l 0 486 l 0 625 m 139 625 l 208 625 l 208 486 l 139 486 l 139 625 z "},"#":{"ha":1111,"x_min":0,"x_max":972,"o":"m 736 139 l 736 486 l 250 486 l 250 139 l 736 139 m 806 69 l 806 0 l 736 0 l 736 69 l 250 69 l 250 0 l 181 0 l 181 69 l 0 69 l 0 139 l 181 139 l 181 486 l 0 486 l 0 556 l 181 556 l 181 625 l 250 625 l 250 556 l 736 556 l 736 625 l 806 625 l 806 556 l 972 556 l 972 486 l 806 486 l 806 139 l 972 139 l 972 69 l 806 69 z "},"$":{"ha":1111,"x_min":0,"x_max":972,"o":"m 458 347 l 458 486 l 69 486 l 69 347 l 458 347 m 528 278 l 528 139 l 903 139 l 903 278 l 528 278 m 528 69 l 528 0 l 458 0 l 458 69 l 0 69 l 0 139 l 458 139 l 458 278 l 0 278 l 0 556 l 458 556 l 458 625 l 528 625 l 528 556 l 972 556 l 972 486 l 528 486 l 528 347 l 972 347 l 972 69 l 528 69 z "},"%":{"ha":486,"x_min":0,"x_max":347,"o":"m 347 625 l 69 0 l 0 0 l 278 625 l 347 625 m 0 556 q 20 605 0 585 q 69 625 40 625 q 119 605 99 625 q 139 556 139 585 q 119 506 139 526 q 69 486 99 486 q 20 506 40 486 q 0 556 0 526 m 208 69 q 228 119 208 99 q 278 139 249 139 q 327 119 307 139 q 347 69 347 99 q 327 20 347 40 q 278 0 307 0 q 228 20 249 0 q 208 69 208 40 z "},"&":{"ha":1111,"x_min":0,"x_max":972,"o":"m 903 347 l 903 556 l 69 556 l 69 347 l 903 347 m 644 126 l 972 208 l 972 139 l 753 85 l 972 0 l 792 0 l 644 57 l 417 0 l 0 0 l 0 625 l 972 625 l 972 278 l 250 278 l 644 126 m 417 69 l 535 99 l 69 278 l 69 69 l 417 69 z "},"'":{"ha":208,"x_min":0,"x_max":69,"o":"m 0 625 l 69 625 l 69 486 l 0 486 l 0 625 z "},"(":{"ha":1111,"x_min":0,"x_max":139,"o":"m 69 556 l 69 69 l 139 69 l 139 0 l 0 0 l 0 625 l 139 625 l 139 556 l 69 556 z "},")":{"ha":278,"x_min":0,"x_max":139,"o":"m 69 556 l 0 556 l 0 625 l 139 625 l 139 0 l 0 0 l 0 69 l 69 69 l 69 556 z "},"*":{"ha":833,"x_min":0,"x_max":694,"o":"m 501 411 l 438 347 l 694 347 l 694 278 l 438 278 l 501 214 l 453 165 l 389 229 l 389 139 l 319 139 l 319 229 l 256 165 l 207 214 l 271 278 l 0 278 l 0 347 l 271 347 l 207 411 l 256 460 l 319 396 l 319 486 l 389 486 l 389 396 l 453 460 l 501 411 z "},"+":{"ha":833,"x_min":0,"x_max":694,"o":"m 319 486 l 389 486 l 389 347 l 694 347 l 694 278 l 389 278 l 389 139 l 319 139 l 319 278 l 0 278 l 0 347 l 319 347 l 319 486 z "},",":{"ha":208,"x_min":0,"x_max":69,"o":"m 0 69 l 69 69 l 69 -69 l 0 -69 l 0 69 z "},"-":{"ha":694,"x_min":0,"x_max":556,"o":"m 0 347 l 556 347 l 556 278 l 0 278 l 0 347 z "},".":{"ha":208,"x_min":0,"x_max":69,"o":"m 0 69 l 69 69 l 69 0 l 0 0 l 0 69 z "},"/":{"ha":486,"x_min":0,"x_max":347,"o":"m 347 625 l 69 0 l 0 0 l 278 625 l 347 625 z "},":":{"ha":208,"x_min":0,"x_max":69,"o":"m 0 208 l 69 208 l 69 139 l 0 139 l 0 208 m 0 417 l 69 417 l 69 347 l 0 347 l 0 417 z "},";":{"ha":208,"x_min":0,"x_max":69,"o":"m 0 69 l 69 69 l 69 -69 l 0 -69 l 0 69 m 0 417 l 69 417 l 69 347 l 0 347 l 0 417 z "},"<":{"ha":625,"x_min":-7,"x_max":479,"o":"m -7 382 l 479 688 l 479 590 l 72 335 l 479 90 l 479 -7 l -7 285 l -7 382 z "},"=":{"ha":833,"x_min":0,"x_max":694,"o":"m 0 417 l 694 417 l 694 347 l 0 347 l 0 417 m 0 278 l 694 278 l 694 208 l 0 208 l 0 278 z "},">":{"ha":625,"x_min":-7,"x_max":479,"o":"m 479 382 l 479 285 l -7 -7 l -7 90 l 400 335 l -7 590 l -7 688 l 479 382 z "},"?":{"ha":1111,"x_min":0,"x_max":972,"o":"m 528 278 l 528 139 l 458 139 l 458 347 l 903 347 l 903 417 l 0 417 l 0 486 l 972 486 l 972 278 l 528 278 m 458 69 l 528 69 l 528 0 l 458 0 l 458 69 z "},"@":{"ha":1111,"x_min":0,"x_max":972,"o":"m 208 417 l 208 208 l 764 208 l 764 417 l 208 417 m 69 69 l 972 69 l 972 0 l 0 0 l 0 625 l 972 625 l 972 139 l 139 139 l 139 486 l 833 486 l 833 208 l 903 208 l 903 556 l 69 556 l 69 69 z "},"A":{"ha":1111,"x_min":0,"x_max":972,"o":"m 0 625 l 972 625 l 972 0 l 903 0 l 903 417 l 69 417 l 69 0 l 0 0 l 0 625 m 69 556 l 69 486 l 903 486 l 903 556 l 69 556 z "},"B":{"ha":1111,"x_min":0,"x_max":972,"o":"m 69 417 l 69 69 l 903 69 l 903 417 l 69 417 m 625 486 l 625 556 l 69 556 l 69 486 l 625 486 m 694 486 l 972 486 l 972 0 l 0 0 l 0 625 l 694 625 l 694 486 z "},"C":{"ha":1111,"x_min":0,"x_max":972,"o":"m 69 556 l 69 69 l 972 69 l 972 0 l 0 0 l 0 625 l 972 625 l 972 556 l 69 556 z "},"D":{"ha":1111,"x_min":0,"x_max":972,"o":"m 972 0 l 0 0 l 0 625 l 868 625 l 972 521 l 972 0 m 69 69 l 903 69 l 903 486 l 833 556 l 69 556 l 69 69 z "},"E":{"ha":1111,"x_min":0,"x_max":972,"o":"m 69 556 l 69 486 l 972 486 l 972 417 l 69 417 l 69 69 l 972 69 l 972 0 l 0 0 l 0 625 l 972 625 l 972 556 l 69 556 z "},"F":{"ha":1111,"x_min":0,"x_max":972,"o":"m 69 486 l 486 486 l 486 417 l 69 417 l 69 0 l 0 0 l 0 625 l 972 625 l 972 556 l 69 556 l 69 486 z "},"G":{"ha":1111,"x_min":0,"x_max":972,"o":"m 69 556 l 69 69 l 903 69 l 903 417 l 556 417 l 556 486 l 972 486 l 972 0 l 0 0 l 0 625 l 972 625 l 972 556 l 69 556 z "},"H":{"ha":1111,"x_min":0,"x_max":972,"o":"m 903 625 l 972 625 l 972 0 l 903 0 l 903 417 l 69 417 l 69 0 l 0 0 l 0 625 l 69 625 l 69 486 l 903 486 l 903 625 z "},"I":{"ha":208,"x_min":0,"x_max":69,"o":"m 0 625 l 69 625 l 69 0 l 0 0 l 0 625 z "},"J":{"ha":1111,"x_min":0,"x_max":972,"o":"m 0 278 l 69 278 l 69 69 l 903 69 l 903 556 l 0 556 l 0 625 l 972 625 l 972 0 l 0 0 l 0 278 z "},"K":{"ha":1111,"x_min":0,"x_max":972,"o":"m 972 0 l 903 0 l 903 278 l 69 278 l 69 0 l 0 0 l 0 625 l 69 625 l 69 486 l 972 486 l 972 417 l 69 417 l 69 347 l 972 347 l 972 0 z "},"L":{"ha":1111,"x_min":0,"x_max":972,"o":"m 0 625 l 69 625 l 69 69 l 972 69 l 972 0 l 0 0 l 0 625 m 0 625 l 69 625 l 0 625 z "},"M":{"ha":1111,"x_min":0,"x_max":972,"o":"m 528 556 l 528 0 l 458 0 l 458 556 l 69 556 l 69 0 l 0 0 l 0 625 l 972 625 l 972 0 l 903 0 l 903 556 l 528 556 z "},"N":{"ha":1111,"x_min":0,"x_max":972,"o":"m 972 0 l 903 0 l 903 556 l 69 556 l 69 0 l 0 0 l 0 625 l 972 625 l 972 0 z "},"O":{"ha":1111,"x_min":0,"x_max":972,"o":"m 972 0 l 0 0 l 0 625 l 972 625 l 972 0 m 69 69 l 903 69 l 903 556 l 69 556 l 69 69 z "},"P":{"ha":1111,"x_min":0,"x_max":972,"o":"m 69 208 l 903 208 l 903 556 l 69 556 l 69 208 m 0 0 l 0 625 l 972 625 l 972 139 l 69 139 l 69 0 l 0 0 z "},"Q":{"ha":1111,"x_min":0,"x_max":972,"o":"m 69 69 l 903 69 l 903 556 l 69 556 l 69 69 m 528 0 l 528 -139 l 458 -139 l 458 0 l 0 0 l 0 625 l 972 625 l 972 0 l 528 0 z "},"R":{"ha":1111,"x_min":0,"x_max":972,"o":"m 625 486 l 625 556 l 69 556 l 69 486 l 625 486 m 694 486 l 972 486 l 972 0 l 903 0 l 903 417 l 69 417 l 69 0 l 0 0 l 0 625 l 694 625 l 694 486 z "},"S":{"ha":1111,"x_min":0,"x_max":972,"o":"m 972 0 l 0 0 l 0 69 l 903 69 l 903 417 l 0 417 l 0 625 l 972 625 l 972 556 l 69 556 l 69 486 l 972 486 l 972 0 z "},"T":{"ha":1111,"x_min":0,"x_max":972,"o":"m 528 556 l 528 0 l 458 0 l 458 556 l 0 556 l 0 625 l 972 625 l 972 556 l 528 556 z "},"U":{"ha":1111,"x_min":0,"x_max":972,"o":"m 972 0 l 0 0 l 0 625 l 69 625 l 69 69 l 903 69 l 903 625 l 972 625 l 972 0 z "},"V":{"ha":1111,"x_min":0,"x_max":972,"o":"m 444 0 l 0 625 l 97 625 l 492 69 l 875 625 l 972 625 l 542 0 l 444 0 z "},"W":{"ha":1111,"x_min":0,"x_max":972,"o":"m 528 69 l 903 69 l 903 625 l 972 625 l 972 0 l 0 0 l 0 625 l 69 625 l 69 69 l 458 69 l 458 625 l 528 625 l 528 69 z "},"X":{"ha":1111,"x_min":0,"x_max":972,"o":"m 0 0 l 410 313 l 0 625 l 153 625 l 486 371 l 819 625 l 972 625 l 563 313 l 972 0 l 819 0 l 486 254 l 153 0 l 0 0 z "},"Y":{"ha":1111,"x_min":0,"x_max":972,"o":"m 528 278 l 528 0 l 458 0 l 458 278 l 0 278 l 0 625 l 69 625 l 69 347 l 903 347 l 903 625 l 972 625 l 972 278 l 528 278 z "},"Z":{"ha":1111,"x_min":0,"x_max":972,"o":"m 972 556 l 167 69 l 972 69 l 972 0 l 0 0 l 0 69 l 806 556 l 0 556 l 0 625 l 972 625 l 972 556 z "},"[":{"ha":278,"x_min":0,"x_max":139,"o":"m 69 556 l 69 69 l 139 69 l 139 0 l 0 0 l 0 625 l 139 625 l 139 556 l 69 556 z "},"\\":{"ha":486,"x_min":0,"x_max":347,"o":"m 0 625 l 69 625 l 347 0 l 278 0 l 0 625 z "},"]":{"ha":278,"x_min":0,"x_max":139,"o":"m 69 556 l 0 556 l 0 625 l 139 625 l 139 0 l 0 0 l 0 69 l 69 69 l 69 556 z "},"^":{"ha":486,"x_min":0,"x_max":347,"o":"m 174 938 l 347 764 l 278 764 l 174 868 l 69 764 l 0 764 l 174 938 z "},"_":{"ha":1111,"x_min":0,"x_max":972,"o":"m 0 0 l 972 0 l 972 -69 l 0 -69 l 0 0 z "},"`":{"ha":278,"x_min":0,"x_max":139,"o":"m 69 903 l 139 694 l 69 694 l 0 903 l 69 903 z "},"a":{"ha":1111,"x_min":0,"x_max":972,"o":"m 0 347 l 903 347 l 903 417 l 0 417 l 0 486 l 972 486 l 972 0 l 0 0 l 0 347 m 69 278 l 69 69 l 903 69 l 903 278 l 69 278 z "},"b":{"ha":1111,"x_min":0,"x_max":972,"o":"m 69 417 l 69 69 l 903 69 l 903 417 l 69 417 m 0 625 l 69 625 l 69 486 l 972 486 l 972 0 l 0 0 l 0 625 z "},"c":{"ha":1111,"x_min":0,"x_max":972,"o":"m 69 417 l 69 69 l 972 69 l 972 0 l 0 0 l 0 486 l 972 486 l 972 417 l 69 417 z "},"d":{"ha":1111,"x_min":0,"x_max":972,"o":"m 903 417 l 69 417 l 69 69 l 903 69 l 903 417 m 972 625 l 972 0 l 0 0 l 0 486 l 903 486 l 903 625 l 972 625 z "},"e":{"ha":1111,"x_min":0,"x_max":972,"o":"m 0 486 l 972 486 l 972 139 l 69 139 l 69 69 l 972 69 l 972 0 l 0 0 l 0 486 m 69 417 l 69 208 l 903 208 l 903 417 l 69 417 z "},"f":{"ha":1111,"x_min":0,"x_max":972,"o":"m 69 347 l 486 347 l 486 278 l 69 278 l 69 0 l 0 0 l 0 486 l 972 486 l 972 417 l 69 417 l 69 347 z "},"g":{"ha":1111,"x_min":0,"x_max":972,"o":"m 69 417 l 69 69 l 903 69 l 903 278 l 556 278 l 556 347 l 972 347 l 972 0 l 0 0 l 0 486 l 972 486 l 972 417 l 69 417 z "},"h":{"ha":1111,"x_min":0,"x_max":972,"o":"m 0 625 l 69 625 l 69 486 l 972 486 l 972 0 l 903 0 l 903 417 l 69 417 l 69 0 l 0 0 l 0 625 z "},"i":{"ha":208,"x_min":0,"x_max":69,"o":"m 0 417 l 69 417 l 69 0 l 0 0 l 0 417 m 0 625 l 69 625 l 69 486 l 0 486 l 0 625 z "},"j":{"ha":1111,"x_min":0,"x_max":972,"o":"m 0 278 l 69 278 l 69 69 l 903 69 l 903 417 l 0 417 l 0 486 l 972 486 l 972 0 l 0 0 l 0 278 z "},"k":{"ha":1111,"x_min":0,"x_max":972,"o":"m 972 0 l 903 0 l 903 139 l 69 139 l 69 0 l 0 0 l 0 486 l 69 486 l 69 347 l 972 347 l 972 278 l 69 278 l 69 208 l 972 208 l 972 0 z "},"l":{"ha":1111,"x_min":0,"x_max":972,"o":"m 0 486 l 69 486 l 69 69 l 972 69 l 972 0 l 0 0 l 0 486 m 0 486 l 69 486 l 0 486 z "},"m":{"ha":1111,"x_min":0,"x_max":972,"o":"m 528 417 l 528 0 l 458 0 l 458 417 l 69 417 l 69 0 l 0 0 l 0 486 l 972 486 l 972 0 l 903 0 l 903 417 l 528 417 z "},"n":{"ha":1111,"x_min":0,"x_max":972,"o":"m 972 0 l 903 0 l 903 417 l 69 417 l 69 0 l 0 0 l 0 486 l 972 486 l 972 0 z "},"o":{"ha":1111,"x_min":0,"x_max":972,"o":"m 972 0 l 0 0 l 0 486 l 972 486 l 972 0 m 69 69 l 903 69 l 903 417 l 69 417 l 69 69 z "},"p":{"ha":1111,"x_min":0,"x_max":972,"o":"m 69 69 l 903 69 l 903 417 l 69 417 l 69 69 m 0 -139 l 0 486 l 972 486 l 972 0 l 69 0 l 69 -139 l 0 -139 z "},"q":{"ha":1111,"x_min":0,"x_max":972,"o":"m 903 69 l 903 417 l 69 417 l 69 69 l 903 69 m 972 -139 l 903 -139 l 903 0 l 0 0 l 0 486 l 972 486 l 972 -139 z "},"r":{"ha":1111,"x_min":0,"x_max":972,"o":"m 69 417 l 69 0 l 0 0 l 0 486 l 972 486 l 972 417 l 69 417 z "},"s":{"ha":1111,"x_min":0,"x_max":972,"o":"m 972 0 l 0 0 l 0 69 l 903 69 l 903 278 l 0 278 l 0 486 l 972 486 l 972 417 l 69 417 l 69 347 l 972 347 l 972 0 z "},"t":{"ha":1111,"x_min":0,"x_max":972,"o":"m 903 278 l 972 278 l 972 0 l 0 0 l 0 625 l 69 625 l 69 486 l 972 486 l 972 417 l 69 417 l 69 69 l 903 69 l 903 278 z "},"u":{"ha":1111,"x_min":0,"x_max":972,"o":"m 972 0 l 0 0 l 0 486 l 69 486 l 69 69 l 903 69 l 903 486 l 972 486 l 972 0 z "},"v":{"ha":1111,"x_min":0,"x_max":972,"o":"m 444 0 l 0 486 l 97 486 l 492 54 l 875 486 l 972 486 l 542 0 l 444 0 z "},"w":{"ha":1111,"x_min":0,"x_max":972,"o":"m 528 69 l 903 69 l 903 486 l 972 486 l 972 0 l 0 0 l 0 486 l 69 486 l 69 69 l 458 69 l 458 486 l 528 486 l 528 69 z "},"x":{"ha":1111,"x_min":0,"x_max":972,"o":"m 0 0 l 410 243 l 0 486 l 153 486 l 486 289 l 819 486 l 972 486 l 563 243 l 972 0 l 819 0 l 486 197 l 153 0 l 0 0 z "},"y":{"ha":1111,"x_min":0,"x_max":972,"o":"m 0 69 l 903 69 l 903 139 l 0 139 l 0 486 l 69 486 l 69 208 l 903 208 l 903 486 l 972 486 l 972 0 l 0 0 l 0 69 z "},"z":{"ha":1111,"x_min":0,"x_max":972,"o":"m 972 417 l 167 69 l 972 69 l 972 0 l 0 0 l 0 69 l 806 417 l 0 417 l 0 486 l 972 486 l 972 417 z "},"{":{"ha":347,"x_min":0,"x_max":208,"o":"m 0 347 l 69 347 l 69 625 l 208 625 l 208 556 l 139 556 l 139 69 l 208 69 l 208 0 l 69 0 l 69 278 l 0 278 l 0 347 z "},"|":{"ha":208,"x_min":0,"x_max":69,"o":"m 0 625 l 69 625 l 69 0 l 0 0 l 0 625 z "},"}":{"ha":347,"x_min":0,"x_max":208,"o":"m 208 347 l 208 278 l 139 278 l 139 0 l 0 0 l 0 69 l 69 69 l 69 556 l 0 556 l 0 625 l 139 625 l 139 347 l 208 347 z "},"~":{"ha":417,"x_min":-7,"x_max":271,"o":"m 104 558 l -7 493 l -7 590 l 160 688 l 160 622 l 271 688 l 271 590 l 104 493 l 104 558 z "},"¡":{"ha":208,"x_min":0,"x_max":69,"o":"m 0 0 l 0 486 l 69 486 l 69 0 l 0 0 m 0 556 l 0 625 l 69 625 l 69 556 l 0 556 z "},"¢":{"ha":1111,"x_min":0,"x_max":972,"o":"m 444 139 l 444 486 l 69 486 l 69 139 l 444 139 m 514 69 l 514 0 l 444 0 l 444 69 l 0 69 l 0 556 l 444 556 l 444 625 l 514 625 l 514 556 l 972 556 l 972 486 l 514 486 l 514 139 l 972 139 l 972 69 l 514 69 z "},"£":{"ha":1111,"x_min":0,"x_max":972,"o":"m 69 347 l 278 347 l 278 278 l 69 278 l 69 69 l 903 69 l 903 139 l 972 139 l 972 0 l 0 0 l 0 625 l 417 625 l 417 417 l 347 417 l 347 556 l 69 556 l 69 347 m 0 625 z "},"¦":{"ha":208,"x_min":0,"x_max":69,"o":"m 0 625 l 69 625 l 69 347 l 0 347 l 0 625 m 0 278 l 69 278 l 69 0 l 0 0 l 0 278 z "},"©":{"ha":1111,"x_min":0,"x_max":972,"o":"m 0 0 l 0 625 l 972 625 l 972 0 l 0 0 m 69 69 l 903 69 l 903 556 l 69 556 l 69 69 m 208 208 l 833 208 l 833 139 l 139 139 l 139 486 l 833 486 l 833 417 l 208 417 l 208 208 z "},"®":{"ha":1111,"x_min":0,"x_max":972,"o":"m 0 0 l 0 625 l 972 625 l 972 0 l 0 0 m 69 69 l 903 69 l 903 556 l 69 556 l 69 69 m 486 347 l 486 417 l 208 417 l 208 347 l 486 347 m 556 347 l 833 347 l 833 139 l 764 139 l 764 278 l 208 278 l 208 139 l 139 139 l 139 486 l 556 486 l 556 347 z "},"¿":{"ha":1111,"x_min":0,"x_max":972,"o":"m 528 208 l 972 208 l 972 0 l 0 0 l 0 69 l 903 69 l 903 139 l 458 139 l 458 347 l 528 347 l 528 208 m 458 417 l 458 486 l 528 486 l 528 417 l 458 417 z "},"À":{"ha":1111,"x_min":0,"x_max":972,"o":"m 972 0 l 903 0 l 903 417 l 69 417 l 69 0 l 0 0 l 0 625 l 972 625 l 972 0 m 903 556 l 69 556 l 69 486 l 903 486 l 903 556 m 486 903 l 556 694 l 486 694 l 417 903 l 486 903 z "},"Á":{"ha":1111,"x_min":0,"x_max":972,"o":"m 0 625 l 972 625 l 972 0 l 903 0 l 903 417 l 69 417 l 69 0 l 0 0 l 0 625 m 69 556 l 69 486 l 903 486 l 903 556 l 69 556 m 486 903 l 556 903 l 486 694 l 417 694 l 486 903 z "},"Â":{"ha":1111,"x_min":0,"x_max":972,"o":"m 0 625 l 972 625 l 972 0 l 903 0 l 903 417 l 69 417 l 69 0 l 0 0 l 0 625 m 69 556 l 69 486 l 903 486 l 903 556 l 69 556 m 486 868 l 660 694 l 590 694 l 486 799 l 382 694 l 313 694 l 486 868 z "},"Ã":{"ha":1111,"x_min":0,"x_max":972,"o":"m 972 0 l 903 0 l 903 417 l 69 417 l 69 0 l 0 0 l 0 625 l 972 625 l 972 0 m 903 556 l 69 556 l 69 486 l 903 486 l 903 556 m 479 767 l 368 701 l 368 799 l 535 896 l 535 831 l 646 896 l 646 799 l 479 701 l 479 767 z "},"Ä":{"ha":1111,"x_min":0,"x_max":972,"o":"m 0 625 l 972 625 l 972 0 l 903 0 l 903 417 l 69 417 l 69 0 l 0 0 l 0 625 m 69 556 l 69 486 l 903 486 l 903 556 l 69 556 m 278 764 l 347 764 l 347 694 l 278 694 l 278 764 m 625 764 l 694 764 l 694 694 l 625 694 l 625 764 z "},"Å":{"ha":1111,"x_min":0,"x_max":972,"o":"m 0 625 l 972 625 l 972 0 l 903 0 l 903 417 l 69 417 l 69 0 l 0 0 l 0 625 m 69 556 l 69 486 l 903 486 l 903 556 l 69 556 m 347 722 q 388 772 347 751 q 486 792 429 792 q 584 772 543 792 q 625 722 625 751 q 584 673 625 693 q 486 653 543 653 q 388 673 429 653 q 347 722 347 693 z "},"Æ":{"ha":1111,"x_min":0,"x_max":972,"o":"m 69 556 l 69 486 l 458 486 l 458 556 l 69 556 m 528 69 l 972 69 l 972 0 l 458 0 l 458 417 l 69 417 l 69 0 l 0 0 l 0 625 l 972 625 l 972 556 l 528 556 l 528 486 l 972 486 l 972 417 l 528 417 l 528 69 z "},"Ç":{"ha":1111,"x_min":0,"x_max":972,"o":"m 556 0 l 486 -208 l 417 -208 l 486 0 l 0 0 l 0 625 l 972 625 l 972 556 l 69 556 l 69 69 l 972 69 l 972 0 l 556 0 z "},"È":{"ha":1111,"x_min":0,"x_max":972,"o":"m 486 903 l 556 694 l 486 694 l 417 903 l 486 903 m 69 556 l 69 486 l 972 486 l 972 417 l 69 417 l 69 69 l 972 69 l 972 0 l 0 0 l 0 625 l 972 625 l 972 556 l 69 556 z "},"É":{"ha":1111,"x_min":0,"x_max":972,"o":"m 486 903 l 556 903 l 486 694 l 417 694 l 486 903 m 69 556 l 69 486 l 972 486 l 972 417 l 69 417 l 69 69 l 972 69 l 972 0 l 0 0 l 0 625 l 972 625 l 972 556 l 69 556 z "},"Ê":{"ha":1111,"x_min":0,"x_max":972,"o":"m 69 556 l 69 486 l 972 486 l 972 417 l 69 417 l 69 69 l 972 69 l 972 0 l 0 0 l 0 625 l 972 625 l 972 556 l 69 556 m 486 868 l 660 694 l 590 694 l 486 799 l 382 694 l 313 694 l 486 868 z "},"Ë":{"ha":1111,"x_min":0,"x_max":972,"o":"m 69 556 l 69 486 l 972 486 l 972 417 l 69 417 l 69 69 l 972 69 l 972 0 l 0 0 l 0 625 l 972 625 l 972 556 l 69 556 m 278 764 l 347 764 l 347 694 l 278 694 l 278 764 m 625 764 l 694 764 l 694 694 l 625 694 l 625 764 z "},"Ì":{"ha":208,"x_min":-69,"x_max":139,"o":"m -69 764 l 0 764 l 0 694 l -69 694 l -69 764 m 69 764 l 139 764 l 139 694 l 69 694 l 69 764 m 69 556 l 69 0 l 0 0 l 0 556 l 69 556 z "},"Í":{"ha":208,"x_min":0,"x_max":139,"o":"m 0 556 l 69 556 l 69 0 l 0 0 l 0 556 m 69 764 l 139 764 l 69 625 l 0 625 l 69 764 z "},"Î":{"ha":208,"x_min":-69,"x_max":69,"o":"m 69 556 l 69 0 l 0 0 l 0 556 l 69 556 m 0 764 l 69 625 l 0 625 l -69 764 l 0 764 z "},"Ï":{"ha":208,"x_min":-139,"x_max":208,"o":"m 69 556 l 69 0 l 0 0 l 0 556 l 69 556 m 35 868 l 208 694 l 139 694 l 35 799 l -69 694 l -139 694 l 35 868 z "},"Ñ":{"ha":1111,"x_min":0,"x_max":972,"o":"m 479 767 l 368 701 l 368 799 l 535 896 l 535 831 l 646 896 l 646 799 l 479 701 l 479 767 m 972 0 l 903 0 l 903 556 l 69 556 l 69 0 l 0 0 l 0 625 l 972 625 l 972 0 z "},"Ò":{"ha":1111,"x_min":0,"x_max":972,"o":"m 0 625 l 972 625 l 972 0 l 0 0 l 0 625 m 69 556 l 69 69 l 903 69 l 903 556 l 69 556 m 486 903 l 556 694 l 486 694 l 417 903 l 486 903 z "},"Ó":{"ha":1111,"x_min":0,"x_max":972,"o":"m 0 625 l 972 625 l 972 0 l 0 0 l 0 625 m 69 556 l 69 69 l 903 69 l 903 556 l 69 556 m 486 903 l 556 903 l 486 694 l 417 694 l 486 903 z "},"Ô":{"ha":1111,"x_min":0,"x_max":972,"o":"m 0 625 l 69 625 l 69 69 l 903 69 l 903 625 l 972 625 l 972 0 l 0 0 l 0 625 m 486 868 l 660 694 l 590 694 l 486 799 l 382 694 l 313 694 l 486 868 z "},"Õ":{"ha":1111,"x_min":0,"x_max":972,"o":"m 479 767 l 368 701 l 368 799 l 535 896 l 535 831 l 646 896 l 646 799 l 479 701 l 479 767 m 972 0 l 0 0 l 0 625 l 972 625 l 972 0 m 69 69 l 903 69 l 903 556 l 69 556 l 69 69 z "},"Ö":{"ha":1111,"x_min":0,"x_max":972,"o":"m 972 0 l 0 0 l 0 625 l 972 625 l 972 0 m 69 69 l 903 69 l 903 556 l 69 556 l 69 69 m 278 764 l 347 764 l 347 694 l 278 694 l 278 764 m 625 764 l 694 764 l 694 694 l 625 694 l 625 764 z "},"Ø":{"ha":1111,"x_min":0,"x_max":972,"o":"m 0 625 l 972 625 l 972 0 l 0 0 l 0 625 m 139 69 l 903 69 l 903 515 l 139 69 m 833 556 l 69 556 l 69 110 l 833 556 z "},"Ù":{"ha":1111,"x_min":0,"x_max":972,"o":"m 0 625 l 69 625 l 69 69 l 903 69 l 903 625 l 972 625 l 972 0 l 0 0 l 0 625 m 486 903 l 556 694 l 486 694 l 417 903 l 486 903 z "},"Ú":{"ha":1111,"x_min":0,"x_max":972,"o":"m 0 625 l 69 625 l 69 69 l 903 69 l 903 625 l 972 625 l 972 0 l 0 0 l 0 625 m 486 903 l 556 903 l 486 694 l 417 694 l 486 903 z "},"Û":{"ha":1111,"x_min":0,"x_max":972,"o":"m 0 625 l 69 625 l 69 69 l 903 69 l 903 625 l 972 625 l 972 0 l 0 0 l 0 625 m 486 868 l 660 694 l 590 694 l 486 799 l 382 694 l 313 694 l 486 868 z "},"Ü":{"ha":1111,"x_min":0,"x_max":972,"o":"m 278 764 l 347 764 l 347 694 l 278 694 l 278 764 m 625 764 l 694 764 l 694 694 l 625 694 l 625 764 m 972 0 l 0 0 l 0 625 l 69 625 l 69 69 l 903 69 l 903 625 l 972 625 l 972 0 z "},"à":{"ha":1111,"x_min":0,"x_max":972,"o":"m 0 347 l 903 347 l 903 417 l 0 417 l 0 486 l 972 486 l 972 0 l 0 0 l 0 347 m 69 278 l 69 69 l 903 69 l 903 278 l 69 278 m 486 764 l 556 556 l 486 556 l 417 764 l 486 764 z "},"á":{"ha":1111,"x_min":0,"x_max":972,"o":"m 0 347 l 903 347 l 903 417 l 0 417 l 0 486 l 972 486 l 972 0 l 0 0 l 0 347 m 69 278 l 69 69 l 903 69 l 903 278 l 69 278 m 486 764 l 556 764 l 486 556 l 417 556 l 486 764 z "},"â":{"ha":1111,"x_min":0,"x_max":972,"o":"m 0 347 l 903 347 l 903 417 l 0 417 l 0 486 l 972 486 l 972 0 l 0 0 l 0 347 m 69 278 l 69 69 l 903 69 l 903 278 l 69 278 m 486 729 l 660 556 l 590 556 l 486 660 l 382 556 l 313 556 l 486 729 z "},"ã":{"ha":1111,"x_min":0,"x_max":972,"o":"m 0 347 l 903 347 l 903 417 l 0 417 l 0 486 l 972 486 l 972 0 l 0 0 l 0 347 m 69 278 l 69 69 l 903 69 l 903 278 l 69 278 m 465 628 l 354 563 l 354 660 l 521 757 l 521 692 l 632 757 l 632 660 l 465 563 l 465 628 z "},"ä":{"ha":1111,"x_min":0,"x_max":972,"o":"m 0 347 l 903 347 l 903 417 l 0 417 l 0 486 l 972 486 l 972 0 l 0 0 l 0 347 m 69 278 l 69 69 l 903 69 l 903 278 l 69 278 m 278 625 l 347 625 l 347 556 l 278 556 l 278 625 m 625 625 l 694 625 l 694 556 l 625 556 l 625 625 z "},"å":{"ha":1111,"x_min":0,"x_max":972,"o":"m 0 347 l 903 347 l 903 417 l 0 417 l 0 486 l 972 486 l 972 0 l 0 0 l 0 347 m 69 278 l 69 69 l 903 69 l 903 278 l 69 278 m 347 583 q 388 633 347 613 q 486 653 429 653 q 584 633 543 653 q 625 583 625 613 q 584 534 625 554 q 486 514 543 514 q 388 534 429 514 q 347 583 347 554 z "},"æ":{"ha":1111,"x_min":0,"x_max":972,"o":"m 903 208 l 903 556 l 528 556 l 528 208 l 903 208 m 458 417 l 69 417 l 69 69 l 458 69 l 458 417 m 458 486 l 458 556 l 0 556 l 0 625 l 972 625 l 972 139 l 528 139 l 528 69 l 972 69 l 972 0 l 0 0 l 0 486 l 458 486 z "},"ç":{"ha":1111,"x_min":0,"x_max":972,"o":"m 556 0 l 486 -208 l 417 -208 l 486 0 l 0 0 l 0 486 l 972 486 l 972 417 l 69 417 l 69 69 l 972 69 l 972 0 l 556 0 z "},"è":{"ha":1111,"x_min":0,"x_max":972,"o":"m 0 486 l 972 486 l 972 139 l 69 139 l 69 69 l 972 69 l 972 0 l 0 0 l 0 486 m 69 417 l 69 208 l 903 208 l 903 417 l 69 417 m 486 764 l 556 556 l 486 556 l 417 764 l 486 764 z "},"é":{"ha":1111,"x_min":0,"x_max":972,"o":"m 0 486 l 972 486 l 972 139 l 69 139 l 69 69 l 972 69 l 972 0 l 0 0 l 0 486 m 69 417 l 69 208 l 903 208 l 903 417 l 69 417 m 486 764 l 556 764 l 486 556 l 417 556 l 486 764 z "},"ê":{"ha":1111,"x_min":0,"x_max":972,"o":"m 0 486 l 972 486 l 972 139 l 69 139 l 69 69 l 972 69 l 972 0 l 0 0 l 0 486 m 69 417 l 69 208 l 903 208 l 903 417 l 69 417 m 486 729 l 660 556 l 590 556 l 486 660 l 382 556 l 313 556 l 486 729 z "},"ë":{"ha":1111,"x_min":0,"x_max":972,"o":"m 0 486 l 972 486 l 972 139 l 69 139 l 69 69 l 972 69 l 972 0 l 0 0 l 0 486 m 69 417 l 69 208 l 903 208 l 903 417 l 69 417 m 278 625 l 347 625 l 347 556 l 278 556 l 278 625 m 625 625 l 694 625 l 694 556 l 625 556 l 625 625 z "},"ì":{"ha":208,"x_min":-69,"x_max":69,"o":"m 69 417 l 69 0 l 0 0 l 0 417 l 69 417 m 0 625 l 69 486 l 0 486 l -69 625 l 0 625 z "},"í":{"ha":208,"x_min":0,"x_max":139,"o":"m 0 417 l 69 417 l 69 0 l 0 0 l 0 417 m 69 625 l 139 625 l 69 486 l 0 486 l 69 625 z "},"î":{"ha":208,"x_min":-139,"x_max":208,"o":"m 69 417 l 69 0 l 0 0 l 0 417 l 69 417 m 35 729 l 208 556 l 139 556 l 35 660 l -69 556 l -139 556 l 35 729 z "},"ï":{"ha":208,"x_min":-69,"x_max":139,"o":"m -69 625 l 0 625 l 0 556 l -69 556 l -69 625 m 69 625 l 139 625 l 139 556 l 69 556 l 69 625 m 69 417 l 69 0 l 0 0 l 0 417 l 69 417 z "},"ñ":{"ha":1111,"x_min":0,"x_max":972,"o":"m 479 628 l 368 563 l 368 660 l 535 757 l 535 692 l 646 757 l 646 660 l 479 563 l 479 628 m 972 0 l 903 0 l 903 417 l 69 417 l 69 0 l 0 0 l 0 486 l 972 486 l 972 0 z "},"ò":{"ha":1111,"x_min":0,"x_max":972,"o":"m 0 486 l 972 486 l 972 0 l 0 0 l 0 486 m 69 417 l 69 69 l 903 69 l 903 417 l 69 417 m 486 764 l 556 556 l 486 556 l 417 764 l 486 764 z "},"ó":{"ha":1111,"x_min":0,"x_max":972,"o":"m 0 486 l 972 486 l 972 0 l 0 0 l 0 486 m 69 417 l 69 69 l 903 69 l 903 417 l 69 417 m 486 764 l 556 764 l 486 556 l 417 556 l 486 764 z "},"ô":{"ha":1111,"x_min":0,"x_max":972,"o":"m 0 486 l 69 486 l 69 69 l 903 69 l 903 486 l 972 486 l 972 0 l 0 0 l 0 486 m 486 729 l 660 556 l 590 556 l 486 660 l 382 556 l 313 556 l 486 729 z "},"õ":{"ha":1111,"x_min":0,"x_max":972,"o":"m 0 486 l 972 486 l 972 0 l 0 0 l 0 486 m 69 417 l 69 69 l 903 69 l 903 417 l 69 417 m 465 628 l 354 563 l 354 660 l 521 757 l 521 692 l 632 757 l 632 660 l 465 563 l 465 628 z "},"ö":{"ha":1111,"x_min":0,"x_max":972,"o":"m 972 0 l 0 0 l 0 486 l 972 486 l 972 0 m 69 69 l 903 69 l 903 417 l 69 417 l 69 69 m 278 625 l 347 625 l 347 556 l 278 556 l 278 625 m 625 625 l 694 625 l 694 556 l 625 556 l 625 625 z "},"÷":{"ha":625,"x_min":0,"x_max":486,"o":"m 0 347 l 486 347 l 486 278 l 0 278 l 0 347 m 208 486 l 278 486 l 278 417 l 208 417 l 208 486 m 208 208 l 278 208 l 278 139 l 208 139 l 208 208 z "},"ø":{"ha":1111,"x_min":0,"x_max":972,"o":"m 0 486 l 972 486 l 972 0 l 0 0 l 0 486 m 139 69 l 903 69 l 903 388 l 139 69 m 833 417 l 69 417 l 69 99 l 833 417 z "},"ù":{"ha":1111,"x_min":0,"x_max":972,"o":"m 0 486 l 69 486 l 69 69 l 903 69 l 903 486 l 972 486 l 972 0 l 0 0 l 0 486 m 486 764 l 556 556 l 486 556 l 417 764 l 486 764 z "},"ú":{"ha":1111,"x_min":0,"x_max":972,"o":"m 0 486 l 69 486 l 69 69 l 903 69 l 903 486 l 972 486 l 972 0 l 0 0 l 0 486 m 486 764 l 556 764 l 486 556 l 417 556 l 486 764 z "},"û":{"ha":1111,"x_min":0,"x_max":972,"o":"m 0 486 l 69 486 l 69 69 l 903 69 l 903 486 l 972 486 l 972 0 l 0 0 l 0 486 m 486 729 l 660 556 l 590 556 l 486 660 l 382 556 l 313 556 l 486 729 z "},"ü":{"ha":1111,"x_min":0,"x_max":972,"o":"m 69 69 l 903 69 l 903 486 l 972 486 l 972 0 l 0 0 l 0 486 l 69 486 l 69 69 m 278 625 l 347 625 l 347 556 l 278 556 l 278 625 m 625 625 l 694 625 l 694 556 l 625 556 l 625 625 z "},"Œ":{"ha":1111,"x_min":0,"x_max":972,"o":"m 0 0 l 0 625 l 972 625 l 972 556 l 528 556 l 528 486 l 972 486 l 972 417 l 528 417 l 528 69 l 972 69 l 972 0 l 0 0 m 69 69 l 458 69 l 458 556 l 69 556 l 69 69 z "},"œ":{"ha":1111,"x_min":0,"x_max":972,"o":"m 69 69 l 458 69 l 458 556 l 69 556 l 69 69 m 903 208 l 903 556 l 528 556 l 528 208 l 903 208 m 972 139 l 528 139 l 528 69 l 972 69 l 972 0 l 0 0 l 0 625 l 972 625 l 972 139 z "},"–":{"ha":556,"x_min":0,"x_max":417,"o":"m 0 347 l 417 347 l 417 278 l 0 278 l 0 347 z "},"—":{"ha":833,"x_min":0,"x_max":694,"o":"m 0 347 l 694 347 l 694 278 l 0 278 l 0 347 z "},"•":{"ha":556,"x_min":0,"x_max":417,"o":"m 0 347 q 61 494 0 433 q 208 556 122 556 q 356 494 294 556 q 417 347 417 433 q 356 200 417 261 q 208 139 294 139 q 61 200 122 139 q 0 347 0 261 z "},"‰":{"ha":694,"x_min":0,"x_max":556,"o":"m 347 625 l 69 0 l 0 0 l 278 625 l 347 625 m 0 556 q 20 605 0 585 q 69 625 40 625 q 119 605 99 625 q 139 556 139 585 q 119 506 139 526 q 69 486 99 486 q 20 506 40 486 q 0 556 0 526 m 208 69 q 228 119 208 99 q 278 139 249 139 q 327 119 307 139 q 347 69 347 99 q 327 20 347 40 q 278 0 307 0 q 228 20 249 0 q 208 69 208 40 m 417 69 q 437 119 417 99 q 486 139 457 139 q 535 119 515 139 q 556 69 556 99 q 535 20 556 40 q 486 0 515 0 q 437 20 457 0 q 417 69 417 40 z "},"⁄":{"ha":486,"x_min":0,"x_max":347,"o":"m 347 625 l 69 0 l 0 0 l 278 625 l 347 625 z "},"­":{"ha":694,"x_min":0,"x_max":556,"o":"m 0 347 l 556 347 l 556 278 l 0 278 l 0 347 z "},"·":{"ha":208,"x_min":0,"x_max":69,"o":"m 0 347 l 69 347 l 69 278 l 0 278 l 0 347 z "}}}
